# xmcd
#
# Track frame offsets:
#	150
#	18766
#	37579
#	57110
#	70302
#	83210
#	99391
#	111274
#	125247
#	146026
#
# Disc length: 2165 seconds
#
# Revision: 0
# Processed by: cddbd v1.5.2PL0 Copyright (c) Steve Scherf et al.
# Submitted via: dBpowerAMP V4.0
#
DISCID=8108730a
DTITLE=ТЯИАМТАЖУККОР цЕЫЯЦИАДГР - ТЯАЦОУДИА ТОУ пЭМТОУ
DYEAR=1900
DGENRE=
TTITLE0=ажг йояг том йуяг соу
TTITLE1=цалгкиом асла
TTITLE2=хулгцла емхулгла
TTITLE3=о пяожуяим
TTITLE4=айяитас ьуволавым
TTITLE5=то жикелам
TTITLE6=о циаммес о ломоциаммес
TTITLE7=о айяитас
TTITLE8=тфг тяивас то цежуяим
TTITLE9=паты йаи боукифы
EXTD=
EXTT0=
EXTT1=
EXTT2=
EXTT3=
EXTT4=
EXTT5=
EXTT6=
EXTT7=
EXTT8=
EXTT9=
PLAYORDER=
